<?xml version="1.0" standalone="no"?>
<!DOCTYPE svg PUBLIC "-//W3C//DTD SVG 20010904//EN"
 "http://www.w3.org/TR/2001/REC-SVG-20010904/DTD/svg10.dtd">
<svg version="1.0" xmlns="http://www.w3.org/2000/svg"
 width="750.000000pt" height="554.000000pt" viewBox="0 0 750.000000 554.000000"
 preserveAspectRatio="xMidYMid meet">

<g transform="translate(0.000000,554.000000) scale(0.100000,-0.100000)"
fill="#000000" stroke="none">
<path d="M0 2770 l0 -2770 3750 0 3750 0 0 2770 0 2770 -3750 0 -3750 0 0
-2770z m2620 -140 c0 -313 -2 -360 -15 -360 -13 0 -15 47 -15 360 0 313 2 360
15 360 13 0 15 -47 15 -360z m-748 260 c41 -12 98 -70 98 -100 0 -19 8 -20
256 -20 195 0 255 -3 252 -12 -3 -7 -87 -68 -189 -135 l-184 -123 -5 -68 -5
-67 -69 0 c-47 0 -71 4 -73 13 -3 7 5 12 21 12 33 0 33 17 1 32 -14 6 -24 16
-22 22 7 19 41 6 68 -24 44 -51 49 -42 49 95 0 104 2 125 15 125 11 0 15 -12
15 -50 0 -27 2 -50 5 -50 3 0 72 44 153 98 l146 97 -227 3 -226 2 -11 39 c-11
42 -31 64 -72 80 -36 14 -92 -3 -118 -36 -34 -44 -27 -53 40 -53 47 0 60 -3
60 -15 0 -12 -15 -15 -75 -15 l-75 0 0 35 c0 55 60 112 130 124 3 1 22 -4 42
-9z m-24 -71 c-2 -6 -8 -10 -13 -10 -5 0 -11 4 -13 10 -2 6 4 11 13 11 9 0 15
-5 13 -11z m1192 -68 c0 -20 -17 -31 -37 -24 -7 3 -13 13 -13 24 0 14 7 19 25
19 18 0 25 -5 25 -19z m1360 -101 l0 -110 -25 0 -25 0 0 110 0 110 25 0 25 0
0 -110z m-1469 62 c48 -54 35 -123 -31 -157 -16 -8 -55 -15 -90 -15 l-60 0 0
106 0 106 76 -4 c71 -3 78 -6 105 -36z m789 23 c36 -19 53 -49 52 -92 -3 -71
-48 -103 -147 -103 l-55 0 0 105 0 105 60 0 c35 0 74 -7 90 -15z m1870 -15 c0
-13 7 -20 20 -20 13 0 20 -7 20 -20 0 -13 -7 -20 -20 -20 -16 0 -20 -7 -20
-35 0 -29 5 -37 26 -45 31 -12 27 -34 -8 -38 -37 -4 -58 22 -58 74 0 32 -4 44
-15 44 -8 0 -15 9 -15 20 0 11 7 20 15 20 8 0 15 9 15 20 0 13 7 20 20 20 13
0 20 -7 20 -20z m-3740 -35 c5 -14 21 -30 35 -35 32 -12 32 -24 0 -38 -14 -7
-30 -24 -36 -39 -8 -20 -12 -24 -22 -14 -9 9 -8 18 5 42 16 28 16 32 2 54 -9
14 -14 32 -10 40 8 21 15 19 26 -10z m1190 -65 c0 -79 0 -80 -25 -80 -25 0
-25 1 -25 80 0 79 0 80 25 80 25 0 25 -1 25 -80z m185 64 c10 -11 15 -35 15
-80 0 -57 -2 -64 -20 -64 -17 0 -20 7 -20 48 0 58 -10 75 -41 70 -21 -3 -25
-9 -29 -58 -4 -48 -8 -55 -27 -58 -22 -3 -23 -1 -23 76 l0 79 65 1 c46 1 69
-3 80 -14z m200 -9 c50 -49 22 -122 -50 -132 -57 -7 -95 24 -95 77 0 51 30 80
82 80 28 0 46 -7 63 -25z m515 5 c11 -11 20 -31 20 -45 0 -24 -3 -25 -56 -25
-40 0 -54 -3 -51 -12 2 -7 19 -13 39 -14 47 -1 63 -11 46 -31 -18 -23 -97 -11
-120 17 -25 30 -23 79 4 107 28 30 89 32 118 3z m99 -32 l23 -53 21 52 c17 41
27 53 44 53 22 0 22 -1 -11 -77 -27 -64 -37 -79 -57 -81 -20 -2 -27 4 -41 40
-9 24 -23 60 -32 81 -16 37 -16 37 8 37 19 0 28 -10 45 -52z m260 26 c12 -15
21 -35 21 -45 0 -17 -8 -19 -61 -19 -55 0 -60 -2 -48 -16 7 -9 25 -14 43 -13
17 2 38 -1 45 -5 12 -8 11 -11 -4 -23 -56 -40 -154 15 -141 80 8 43 39 67 86
67 30 0 43 -6 59 -26z m278 4 c51 -48 12 -138 -60 -138 -73 0 -111 77 -66 134
27 34 91 37 126 4z m209 1 c24 -27 25 -93 1 -116 -12 -12 -33 -18 -62 -18 -42
0 -45 -2 -45 -27 0 -23 -4 -28 -25 -28 l-25 0 0 104 0 104 69 1 c57 0 72 -3
87 -20z m190 10 c8 -7 14 -6 19 1 10 16 81 12 96 -6 9 -10 14 -41 14 -78 0
-55 -2 -61 -22 -64 -20 -3 -22 1 -25 55 -3 51 -6 58 -26 61 -27 4 -37 -22 -41
-105 -1 -7 -10 -13 -21 -13 -16 0 -19 8 -22 58 -3 53 -5 57 -29 60 -22 3 -27
-2 -33 -29 -3 -17 -6 -44 -6 -60 0 -22 -5 -29 -20 -29 -18 0 -20 7 -20 79 l0
78 62 1 c34 1 68 -4 74 -9z m297 -1 c9 -7 21 -28 26 -45 l10 -33 -61 0 c-43 0
-59 -3 -55 -12 2 -8 21 -13 45 -13 49 0 64 -12 38 -31 -53 -38 -136 3 -136 66
0 62 83 104 133 68z m212 -11 c9 -13 15 -44 15 -79 0 -55 -1 -58 -25 -58 -22
0 -24 4 -27 58 -3 51 -5 57 -27 60 -31 5 -41 -12 -41 -70 0 -41 -3 -48 -20
-48 -18 0 -20 7 -20 79 l0 78 65 1 c56 1 66 -2 80 -21z m300 3 c0 -10 -11 -15
-35 -15 -46 0 -54 -17 -13 -26 62 -12 79 -43 43 -79 -34 -34 -131 -23 -117 13
5 12 13 14 34 8 30 -8 53 -5 53 9 0 4 -14 10 -32 14 -41 8 -58 23 -58 52 0 31
26 44 80 41 32 -1 45 -6 45 -17z m-3745 -47 c0 -5 -14 -16 -31 -25 -40 -23
-38 -66 4 -86 29 -14 28 -32 -1 -32 -38 1 -78 56 -66 93 11 36 35 57 66 57 15
0 28 -3 28 -7z"/>
<path d="M2800 2645 l0 -65 35 0 c22 0 43 8 55 20 43 43 10 110 -55 110 l-35
0 0 -65z"/>
<path d="M3619 2706 c-2 -2 -2 -32 -1 -65 l4 -61 33 0 c36 0 75 36 75 69 0 30
-38 61 -74 61 -18 0 -35 -2 -37 -4z"/>
<path d="M3336 2654 c-19 -19 -20 -35 -3 -58 8 -11 23 -17 38 -14 31 4 40 55
13 75 -23 17 -29 16 -48 -3z"/>
<path d="M3863 2663 c-26 -10 -12 -23 23 -23 31 0 35 2 24 15 -13 15 -25 17
-47 8z"/>
<path d="M4210 2655 c-11 -13 -8 -15 25 -15 25 0 35 4 33 13 -7 18 -43 20 -58
2z"/>
<path d="M4495 2656 c-11 -8 -16 -22 -13 -41 2 -24 8 -31 30 -33 19 -2 30 3
38 17 20 39 -21 82 -55 57z"/>
<path d="M4695 2656 c-21 -15 -17 -55 8 -70 25 -16 52 4 52 39 0 33 -33 51
-60 31z"/>
<path d="M5203 2663 c-26 -10 -12 -23 23 -23 31 0 35 2 24 15 -13 15 -25 17
-47 8z"/>
</g>
</svg>
