<?xml version="1.0" standalone="no"?>
<!DOCTYPE svg PUBLIC "-//W3C//DTD SVG 20010904//EN"
 "http://www.w3.org/TR/2001/REC-SVG-20010904/DTD/svg10.dtd">
<svg version="1.0" xmlns="http://www.w3.org/2000/svg"
 width="750.000000pt" height="479.000000pt" viewBox="0 0 750.000000 479.000000"
 preserveAspectRatio="xMidYMid meet">

<g transform="translate(0.000000,479.000000) scale(0.100000,-0.100000)"
fill="#000000" stroke="none">
<path d="M2340 2401 c0 -435 0 -441 20 -441 20 0 20 5 18 437 -3 408 -4 438
-20 441 -17 3 -18 -23 -18 -437z"/>
<path d="M2830 2545 c0 -23 4 -26 28 -23 19 2 27 9 27 23 0 14 -8 21 -27 23
-24 3 -28 0 -28 -23z"/>
<path d="M4487 2554 c-4 -4 -7 -63 -7 -131 l0 -124 28 3 27 3 0 125 c0 118 -1
125 -20 128 -12 2 -24 0 -28 -4z"/>
<path d="M2540 2419 l0 -121 89 4 c78 3 93 6 115 27 37 35 50 91 32 135 -23
55 -67 76 -158 76 l-78 0 0 -121z m164 60 c34 -27 36 -82 4 -116 -17 -18 -32
-23 -70 -23 l-48 0 0 80 0 80 44 0 c29 0 52 -7 70 -21z"/>
<path d="M3530 2421 l0 -121 80 0 c93 0 123 11 151 57 30 47 21 105 -20 147
-30 29 -36 31 -121 34 l-90 4 0 -121z m167 57 c30 -28 32 -89 2 -119 -16 -16
-30 -19 -67 -17 l-47 3 -3 64 c-2 35 -1 70 2 77 9 23 86 18 113 -8z"/>
<path d="M5940 2506 c0 -16 -6 -26 -15 -26 -8 0 -15 -9 -15 -20 0 -11 7 -20
15 -20 11 0 15 -12 15 -51 0 -28 4 -59 10 -69 17 -32 90 -36 90 -5 0 8 -10 15
-22 17 -20 3 -23 10 -26 55 -3 47 -1 52 20 55 33 4 37 38 4 38 -18 0 -25 6
-28 23 -2 14 -11 23 -25 25 -19 3 -23 -1 -23 -22z"/>
<path d="M2836 2482 c-3 -3 -6 -45 -6 -94 0 -88 0 -88 25 -88 l26 0 -3 92 c-3
76 -6 92 -20 94 -9 1 -19 -1 -22 -4z"/>
<path d="M2958 2482 c-16 -3 -18 -16 -18 -93 0 -88 0 -89 25 -89 24 0 25 3 25
59 0 50 4 62 21 75 22 15 48 11 61 -8 4 -6 8 -37 8 -68 0 -55 1 -58 25 -58 24
0 25 2 25 68 0 44 -5 75 -15 89 -19 26 -67 38 -95 23 -13 -7 -26 -8 -33 -2 -7
4 -20 7 -29 4z"/>
<path d="M3230 2472 c-71 -35 -70 -129 2 -165 31 -15 43 -16 77 -7 48 13 71
42 71 88 0 46 -16 71 -55 88 -44 18 -53 18 -95 -4z m78 -38 c31 -22 30 -69 -3
-90 -23 -15 -27 -15 -50 0 -29 19 -33 60 -8 88 20 22 32 23 61 2z"/>
<path d="M3874 2481 c-31 -14 -64 -60 -64 -91 0 -63 79 -112 145 -90 37 12 42
19 24 37 -8 8 -19 8 -39 0 -22 -9 -33 -7 -54 7 -33 21 -24 38 18 36 83 -5 106
-1 106 20 0 51 -86 102 -136 81z m71 -44 c26 -20 10 -37 -35 -37 -45 0 -57 12
-34 34 19 20 44 20 69 3z"/>
<path d="M4026 2482 c-2 -4 13 -45 34 -92 34 -77 40 -85 67 -88 32 -3 26 -13
81 124 l21 52 -20 5 c-17 5 -25 -5 -51 -61 l-30 -67 -28 61 c-18 40 -35 63
-49 67 -11 3 -23 2 -25 -1z"/>
<path d="M4298 2474 c-36 -19 -62 -68 -53 -103 15 -58 79 -91 140 -71 37 12
40 17 26 38 -6 10 -13 10 -32 2 -17 -8 -33 -8 -52 -1 -30 12 -38 43 -9 40 9
-1 41 -1 70 0 46 1 52 4 52 22 0 33 -19 60 -55 75 -42 17 -53 17 -87 -2z m80
-36 c25 -25 13 -38 -33 -38 -30 0 -45 4 -45 13 0 19 21 37 45 37 12 0 26 -5
33 -12z"/>
<path d="M4640 2479 c-84 -33 -78 -155 10 -179 72 -19 130 21 130 90 0 44 -16
69 -55 86 -39 16 -50 16 -85 3z m72 -46 c27 -24 23 -69 -7 -89 -23 -15 -27
-15 -50 0 -33 21 -34 68 -3 90 28 20 37 20 60 -1z"/>
<path d="M4843 2483 c-10 -3 -13 -39 -13 -129 l0 -124 25 0 c23 0 25 4 25 40
0 22 2 40 4 40 1 0 17 -5 34 -11 24 -8 37 -7 61 5 104 54 37 220 -71 175 -19
-7 -32 -8 -41 -2 -6 6 -18 8 -24 6z m119 -50 c27 -24 23 -69 -7 -89 -23 -15
-27 -15 -50 0 -29 19 -33 60 -8 88 20 22 41 23 65 1z"/>
<path d="M5093 2482 c-7 -4 -13 -43 -15 -92 l-3 -85 28 -3 c27 -3 27 -2 27 52
0 72 6 86 40 86 34 0 40 -14 40 -86 0 -51 1 -54 25 -54 23 0 25 3 25 51 0 63
13 89 45 89 32 0 45 -26 45 -89 0 -48 2 -51 25 -51 24 0 25 3 25 54 0 69 -15
111 -46 125 -32 14 -43 14 -77 -4 -25 -13 -31 -13 -54 2 -21 14 -30 15 -59 4
-24 -9 -39 -9 -47 -2 -7 5 -18 7 -24 3z"/>
<path d="M5504 2480 c-31 -12 -64 -59 -64 -91 0 -36 42 -86 80 -94 30 -7 100
10 100 24 0 20 -23 28 -50 18 -22 -9 -33 -7 -54 7 -37 24 -23 37 37 35 29 -1
60 -1 70 0 37 2 9 73 -38 96 -37 17 -50 18 -81 5z m71 -43 c26 -20 10 -37 -34
-37 -47 0 -56 8 -34 32 19 21 42 23 68 5z"/>
<path d="M5765 2481 c-11 -5 -35 -6 -52 -3 l-33 5 0 -92 c0 -90 0 -91 25 -91
23 0 25 4 25 44 0 25 4 57 10 71 8 22 15 26 42 23 l33 -3 3 -68 c3 -68 3 -68
30 -65 24 3 27 8 30 45 8 105 -41 163 -113 134z"/>
<path d="M6113 2476 c-73 -33 -46 -97 47 -108 14 -2 25 -9 25 -18 0 -11 -13
-15 -54 -15 -67 0 -79 -19 -21 -35 53 -14 107 2 122 36 15 32 -7 55 -65 69
-60 15 -57 40 5 39 30 0 49 5 52 13 6 16 0 20 -44 27 -21 4 -48 0 -67 -8z"/>
</g>
</svg>
